<svg width="512" height="512" viewBox="0 0 512 512" fill="none" xmlns="http://www.w3.org/2000/svg">
<path d="M256 32C114.6 32 0.0272014 125.1 0.0272014 240C0.0272014 289.63 21.3772 334.98 56.9972 370.7C44.4972 421.07 2.7272 465.97 2.2272 466.47C-0.0227985 468.72 -0.647799 472.204 0.727201 475.204C1.979 478.2 4.75 480 8 480C74.25 480 123.1 448.24 148.6 428.61C181.2 440.9 217.6 448 256 448C397.4 448 511.1 354.87 511.1 240C511.1 125.13 397.4 32 256 32Z" fill="#FFC107"/>
<path d="M256 283.626C266.172 283.626 274.4 276.036 274.4 267.141V130.968C274.4 121.601 266.172 114 256 114C245.828 114 237.6 121.601 237.6 130.968V266.192C237.6 276.046 245.828 283.626 256 283.626ZM256 309.07C243.298 309.07 233 318.564 233 330.274C233 341.983 243.298 351 256 351C268.702 351 279 341.512 279 330.274C279 319.036 268.702 309.07 256 309.07Z" fill="white"/>
</svg>
